<svg width="32" height="32" viewBox="0 0 32 32" fill="none" xmlns="http://www.w3.org/2000/svg">
  <path d="M6 18C6 23.5 10.5 28 16 28C21.5 28 26 23.5 26 18H6Z" fill="#FF00FF"/>
  <path d="M26 20C28.5 20 30 21.5 30 23C30 24.5 28.5 26 26 26" stroke="#333" stroke-width="1.5" stroke-linecap="round"/>
  <path d="M5 18H27" stroke="#333" stroke-width="1.5" stroke-linecap="round"/>
  
  <rect x="10" y="14" width="12" height="1" rx="0.5" fill="#333"/> <rect x="11" y="6" width="10" height="8" fill="#FF00FF"/> <rect x="10" y="5" width="12" height="1.5" rx="0.5" fill="#FF00FF"/> <circle cx="13" cy="12" r="0.5" fill="white" fill-opacity="0.6"/>
  <circle cx="16" cy="12" r="0.5" fill="white" fill-opacity="0.6"/>
  <circle cx="19" cy="12" r="0.5" fill="white" fill-opacity="0.6"/>
  
  <path d="M16 15.5C16 15.5 15 16.5 15 17C15 17.5 15.5 18 16 18C16.5 18 17 17.5 17 17C17 16.5 16 15.5 16 15.5Z" fill="#FF00FF"/>
</svg>
